# xmcd
#
# Track frame offsets: 
#        150
#        15301
#        33652
#        49944
#        65814
#        79316
#        85331
#        103257
#        119321
#        135166
#        151141
#        170529
#        186987
#        203893
#
# Disc length: 2974 seconds
#
# Revision: 0
# Processed by: cddbd v1.5.2PL0 Copyright (c) Steve Scherf et al.
# Submitted via: ExactAudioCopyFreeDBPlugin 1.0
#
DISCID=bd0b9c0e
DTITLE=Rihanna - Talk That Talk
DYEAR=2011
DGENRE=R&B
TTITLE0=You Da One
TTITLE1=Where Have You Been
TTITLE2=We Found Love Feat. Calvin Harris
TTITLE3=Talk That Talk Feat. Jay-Z
TTITLE4=Cockiness (Love It)
TTITLE5=Birthday Cake
TTITLE6=We All Want Love
TTITLE7=Drunk On Love
TTITLE8=Roc Me Out
TTITLE9=Watch N' Learn
TTITLE10=Farewell
TTITLE11=Red Lipstick
TTITLE12=Do Ya Thang
TTITLE13=Fool In Love
EXTD=
EXTT0=
EXTT1=
EXTT2=
EXTT3=
EXTT4=
EXTT5=
EXTT6=
EXTT7=
EXTT8=
EXTT9=
EXTT10=
EXTT11=
EXTT12=
EXTT13=
PLAYORDER=
